<?xml version="1.0" encoding="utf-8"?>
<!-- Generator: Adobe Illustrator 24.1.2, SVG Export Plug-In . SVG Version: 6.00 Build 0)  -->
<svg version="1.1" id="Capa_1" xmlns="http://www.w3.org/2000/svg" xmlns:xlink="http://www.w3.org/1999/xlink" x="0px" y="0px"
	 viewBox="0 0 512 512" style="enable-background:new 0 0 512 512;" xml:space="preserve">
<style type="text/css">
	.st0{fill:#FFFFFF;}
</style>
<g>
	<path class="st0" d="M147,233.5c8.9,52.2,54.3,91.9,109,91.9c54.7,0,100.1-39.7,109-91.9h2.4c17.9,0,32.4-14.5,32.4-32.4
		c0-17.9-14.5-32.4-32.4-32.4h-0.8v-12c-43.7-10.3-70.5-33.5-84.3-49.1c-19.9,17.8-63.3,48.1-137,60.7l-3.8,0.5
		c-16.5,1.5-29.4,15.4-29.4,32.3c0,17.9,14.5,32.4,32.4,32.4L147,233.5z"/>
	<path class="st0" d="M145.4,137.8C235.5,121.1,271.6,76,272,75.5l13.8-17.6l11.1,19.4c0.8,1.4,20.6,34.3,69.7,48.4v-15
		C366.6,49.5,317.1,0,256,0c-61.1,0-110.6,49.5-110.6,110.6V137.8z"/>
	<path class="st0" d="M402.2,422h-4.7c-13.6,0-24.7,11.1-24.7,24.7V482h54.2v-35.3C426.9,433.1,415.8,422,402.2,422L402.2,422z"/>
	<circle class="st0" cx="112.2" cy="462" r="20"/>
	<path class="st0" d="M292,350.7c-11.7,3.1-23.8,4.7-36,4.7c-12.2,0-24.3-1.6-36-4.7l36,50.5L292,350.7z"/>
	<path class="st0" d="M62.2,462c0-22.3,14.7-41.3,35-47.7v-88.9l-40.9,19.2C22.1,360.7,0,395.4,0,433.1V512h112.2
		C84.6,512,62.2,489.6,62.2,462z"/>
	<path class="st0" d="M455.8,344.6l-40.9-19.2v68.1c24.1,5.7,42.1,27.4,42.1,53.2V512H512v-78.9C512,395.4,489.9,360.7,455.8,344.6z
		"/>
	<path class="st0" d="M384.8,393.5v-82.1l-18.9-8.9C362.1,307.2,256,452.8,256,452.8S149.9,307.2,146.1,302.5l-18.9,8.9v102.9
		c20.3,6.4,35,25.4,35,47.7c0,27.6-22.4,50-50,50h230.6v-65.3C342.8,420.9,360.7,399.2,384.8,393.5L384.8,393.5z"/>
</g>
</svg>
