<?xml version="1.0" encoding="utf-8"?>
<!-- Generator: Adobe Illustrator 24.1.2, SVG Export Plug-In . SVG Version: 6.00 Build 0)  -->
<svg version="1.1" id="Capa_1" xmlns="http://www.w3.org/2000/svg" xmlns:xlink="http://www.w3.org/1999/xlink" x="0px" y="0px"
	 viewBox="0 0 96.7 96.7" style="enable-background:new 0 0 96.7 96.7;" xml:space="preserve">
<style type="text/css">
	.st0{fill:#FFFFFF;}
</style>
<g>
	<g>
		<path class="st0" d="M50.9,55.2l-4.5-3.5c-1.4-1.1-3.3-2.7-3.3-5.4c0-2.8,1.9-4.5,3.5-6.2c5.3-4.2,10.6-8.6,10.6-17.9
			c0-9.6-6-14.6-8.9-17h7.8L64.2,0H39.5c-6.8,0-16.6,1.6-23.8,7.5c-5.4,4.7-8,11.1-8,16.9c0,9.8,7.5,19.8,20.9,19.8
			c1.3,0,2.6-0.1,4-0.3c-0.6,1.5-1.3,2.8-1.3,4.9c0,3.9,2,6.3,3.8,8.6c-5.7,0.4-16.2,1-24,5.8c-7.4,4.4-9.7,10.8-9.7,15.4
			c0,9.3,8.8,18,27,18c21.6,0,33.1-12,33.1-23.8C61.5,64.1,56.4,59.9,50.9,55.2z M34.4,40.7c-10.8,0-15.7-14-15.7-22.4
			c0-3.3,0.6-6.7,2.8-9.3c2-2.5,5.5-4.2,8.8-4.2c10.4,0,15.8,14.1,15.8,23.2c0,2.3-0.3,6.3-3.1,9.2C41,39.2,37.6,40.7,34.4,40.7z
			 M34.6,91.4c-13.5,0-22.1-6.4-22.1-15.4c0-8.9,8-12,10.8-13c5.3-1.8,12.1-2,13.2-2c1.3,0,1.9,0,2.9,0.1
			c9.6,6.8,13.7,10.2,13.7,16.7C53.1,85.6,46.6,91.4,34.6,91.4z"/>
		<polygon class="st0" points="82.7,40.5 82.7,27.9 76.5,27.9 76.5,40.5 63.9,40.5 63.9,46.8 76.5,46.8 76.5,59.5 82.7,59.5 
			82.7,46.8 95.3,46.8 95.3,40.5 		"/>
	</g>
</g>
</svg>
