<?xml version="1.0" encoding="utf-8"?>
<!-- Generator: Adobe Illustrator 24.1.2, SVG Export Plug-In . SVG Version: 6.00 Build 0)  -->
<svg version="1.1" id="Layer_1" xmlns="http://www.w3.org/2000/svg" xmlns:xlink="http://www.w3.org/1999/xlink" x="0px" y="0px"
	 viewBox="0 0 512 512" style="enable-background:new 0 0 512 512;" xml:space="preserve">
<style type="text/css">
	.st0{fill:#4ACCD1;}
</style>
<g transform="matrix(-1 2.44929e-16 2.44929e-16 1 512 -1.13687e-13)">
	<g>
		<path class="st0" d="M384.5,0H127.5C57.2,0,0,57.2,0,127.5v257.1C0,454.8,57.2,512,127.5,512h257.1c70.3,0,127.5-57.2,127.5-127.5
			V127.5C512,57.2,454.8,0,384.5,0L384.5,0z M399.5,400.6c0,8.3-6.7,15-15,15h-64.3c-8.3,0-15-6.7-15-15v-97.5h-98.5v97.5
			c0,8.3-6.7,15-15,15h-64.3c-8.3,0-15-6.7-15-15V111.4c0-8.3,6.7-15,15-15h64.3c8.3,0,15,6.7,15,15v97.5h98.5v-97.5
			c0-8.3,6.7-15,15-15h64.3c8.3,0,15,6.7,15,15V400.6z"/>
	</g>
</g>
</svg>
