<?xml version="1.0" encoding="utf-8"?>
<!-- Generator: Adobe Illustrator 24.1.2, SVG Export Plug-In . SVG Version: 6.00 Build 0)  -->
<svg version="1.1" id="Capa_1" xmlns="http://www.w3.org/2000/svg" xmlns:xlink="http://www.w3.org/1999/xlink" x="0px" y="0px"
	 viewBox="0 0 24 24" style="enable-background:new 0 0 24 24;" xml:space="preserve">
<style type="text/css">
	.st0{fill:#FFFFFF;}
</style>
<g>
	<g>
		<path class="st0" d="M20,0H4C1.8,0,0,1.8,0,4v16c0,2.2,1.8,4,4,4h16c2.2,0,4-1.8,4-4V4C24,1.8,22.2,0,20,0z M22,20
			c0,1.1-0.9,2-2,2H4c-1.1,0-2-0.9-2-2V4c0-1.1,0.9-2,2-2h16c1.1,0,2,0.9,2,2V20z"/>
		<circle class="st0" cx="5.9" cy="8" r="1.5"/>
		<path class="st0" d="M18.6,7h-8.2c-0.6,0-1,0.4-1,1s0.4,1,1,1h8.2c0.6,0,1-0.4,1-1S19.2,7,18.6,7z"/>
		<circle class="st0" cx="5.9" cy="12" r="1.5"/>
		<path class="st0" d="M18.6,11h-8.2c-0.6,0-1,0.4-1,1s0.4,1,1,1h8.2c0.6,0,1-0.4,1-1S19.2,11,18.6,11z"/>
		<circle class="st0" cx="5.9" cy="16" r="1.5"/>
		<path class="st0" d="M18.6,15h-8.2c-0.6,0-1,0.4-1,1s0.4,1,1,1h8.2c0.6,0,1-0.4,1-1S19.2,15,18.6,15z"/>
	</g>
</g>
</svg>
